# xmcd
#
# Track frame offsets:
#	150
#	16053
#	31032
#	52354
#	73676
#	98194
#	113176
#	129358
#	147442
#	162338
#	180759
#	195655
#	211055
#
# Disc length: 3191 seconds
#
# Revision: 0
# Processed by: cddbd v1.5.1PL0 Copyright (c) Steve Scherf et al.
# Submitted via: audiograbber 1.83.01
#
DISCID=ad0c750d
DTITLE=Linda Ronstadt and Emmylou harris - Western Wall - The Tucson Session
DYEAR=1999
DGENRE=Country
TTITLE0=Loving the Highway Man
TTITLE1=Raise the Dead
TTITLE2=For a Dancer
TTITLE3=Western Wall
TTITLE4=1917
TTITLE5=He Was Mine
TTITLE6=Sweet Spot
TTITLE7=Sisters of Mercy
TTITLE8=Sisters of Mercy
TTITLE9=Valerie
TTITLE10=This Is to Mother You
TTITLE11=All I Left Behind
TTITLE12=Across the Border
EXTD=
EXTT0=
EXTT1=
EXTT2=
EXTT3=
EXTT4=
EXTT5=
EXTT6=
EXTT7=
EXTT8=
EXTT9=
EXTT10=
EXTT11=
EXTT12=
PLAYORDER=
